<?xml version="1.0" standalone="no"?>
<!DOCTYPE svg PUBLIC "-//W3C//DTD SVG 20010904//EN"
 "http://www.w3.org/TR/2001/REC-SVG-20010904/DTD/svg10.dtd">
<svg version="1.0" xmlns="http://www.w3.org/2000/svg"
 width="488.000000pt" height="544.000000pt" viewBox="0 0 488.000000 544.000000"
 preserveAspectRatio="xMidYMid meet">

<g transform="translate(0.000000,544.000000) scale(0.100000,-0.100000)"
fill="#000000" stroke="none">
<path d="M2444 4781 c-109 -92 -511 -432 -892 -754 -382 -322 -693 -588 -693
-593 1 -4 52 -6 115 -5 63 1 135 -1 160 -4 l46 -7 2 -932 3 -931 946 -3 946
-2 374 -360 374 -360 3 37 c2 21 6 182 10 358 l7 320 140 5 140 5 5 935 5 935
123 0 c88 0 122 3 122 12 0 7 -6 16 -14 20 -7 4 -136 115 -285 247 l-271 239
0 323 0 324 -200 0 -200 0 -2 -227 -3 -228 -56 130 -55 130 -314 278 c-173
152 -319 277 -325 277 -6 0 -101 -76 -211 -169z m116 -1741 l0 -170 -170 0
-170 0 0 163 c0 90 3 167 7 170 3 4 80 7 170 7 l163 0 0 -170z m528 -2 l2
-168 -170 0 -170 0 0 170 0 170 168 -2 167 -3 3 -167z m-528 -528 l0 -170
-167 2 -168 3 -3 168 -2 167 170 0 170 0 0 -170z m528 3 l-3 -168 -167 -3
-168 -2 0 170 0 170 170 0 170 0 -2 -167z"/>
<path d="M572 3082 c-10 -7 -12 -229 -10 -1078 l3 -1069 263 -3 c144 -1 262
-3 262 -5 2 -34 80 -580 84 -584 6 -6 -10 -18 444 314 l373 273 662 0 662 1
-160 154 -160 155 -563 0 -563 0 -186 -162 c-266 -233 -264 -231 -268 -226 -2
2 -7 90 -11 196 l-7 192 -261 2 -261 3 -3 916 -2 916 -46 7 c-66 9 -237 7
-252 -2z"/>
</g>
</svg>
